HIERARCHY
ROOT Junyuan_V1:Solving:Hips
{
	OFFSET 0.000000 0.000000 0.000000
	CHANNELS 6 Xposition Yposition Zposition Xrotation Yrotation Zrotation
	JOINT Junyuan_V1:Solving:Spine
	{
		OFFSET 0.000000 -11.180205 2.228564
		CHANNELS 6 Xposition Yposition Zposition Xrotation Yrotation Zrotation
		JOINT Junyuan_V1:Solving:Spine1
		{
			OFFSET 0.000000 -8.682996 1.531049
			CHANNELS 6 Xposition Yposition Zposition Xrotation Yrotation Zrotation
			JOINT Junyuan_V1:Solving:Spine2
			{
				OFFSET 0.000000 -8.783394 0.768450
				CHANNELS 6 Xposition Yposition Zposition Xrotation Yrotation Zrotation
				JOINT Junyuan_V1:Solving:Spine3
				{
					OFFSET 0.000000 -8.816944 0.000000
					CHANNELS 6 Xposition Yposition Zposition Xrotation Yrotation Zrotation
					JOINT Junyuan_V1:Solving:Neck
					{
						OFFSET 0.000000 -11.336071 -1.133605
						CHANNELS 6 Xposition Yposition Zposition Xrotation Yrotation Zrotation
						JOINT Junyuan_V1:Solving:Neck1
						{
							OFFSET 0.000000 -7.643246 -0.668695
							CHANNELS 6 Xposition Yposition Zposition Xrotation Yrotation Zrotation
							JOINT Junyuan_V1:Solving:Head
							{
								OFFSET 0.000000 -7.555870 -1.332303
								CHANNELS 6 Xposition Yposition Zposition Xrotation Yrotation Zrotation
								JOINT Junyuan_V1:Solving:HeadEnd
								{
									OFFSET 0.000000 -9.728081 0.000002
									CHANNELS 6 Xposition Yposition Zposition Xrotation Yrotation Zrotation
									End Site
									{
										OFFSET 0.000000 -9.728081 0.000002
									}
								}
							}
						}
					}
					JOINT Junyuan_V1:Solving:RightShoulder
					{
						OFFSET 0.000000 -8.097195 -5.270916
						CHANNELS 6 Xposition Yposition Zposition Xrotation Yrotation Zrotation
						JOINT Junyuan_V1:Solving:RightArm
						{
							OFFSET -20.762394 -0.000008 0.000000
							CHANNELS 6 Xposition Yposition Zposition Xrotation Yrotation Zrotation
							JOINT Junyuan_V1:Solving:RightForeArm
							{
								OFFSET -29.048946 -0.000008 0.000000
								CHANNELS 6 Xposition Yposition Zposition Xrotation Yrotation Zrotation
								JOINT Junyuan_V1:Solving:RightHand
								{
									OFFSET -22.031235 -0.000008 0.000000
									CHANNELS 6 Xposition Yposition Zposition Xrotation Yrotation Zrotation
									JOINT Junyuan_V1:Solving:RightHandThumb1
									{
										OFFSET -3.579254 2.890213 -2.661497
										CHANNELS 6 Xposition Yposition Zposition Xrotation Yrotation Zrotation
										End Site
										{
											OFFSET -5.229485 0.000000 -5.277840
										}
									}
									JOINT Junyuan_V1:Solving:RightHandMiddle1
									{
										OFFSET -9.544678 -0.000004 0.061184
										CHANNELS 6 Xposition Yposition Zposition Xrotation Yrotation Zrotation
										End Site
										{
											OFFSET -7.429878 -0.000004 0.000000
										}
									}
								}
							}
						}
					}
					JOINT Junyuan_V1:Solving:LeftShoulder
					{
						OFFSET 0.000000 -8.097195 -5.270916
						CHANNELS 6 Xposition Yposition Zposition Xrotation Yrotation Zrotation
						JOINT Junyuan_V1:Solving:LeftArm
						{
							OFFSET 20.762394 -0.000008 0.000000
							CHANNELS 6 Xposition Yposition Zposition Xrotation Yrotation Zrotation
							JOINT Junyuan_V1:Solving:LeftForeArm
							{
								OFFSET 29.048946 -0.000008 0.000000
								CHANNELS 6 Xposition Yposition Zposition Xrotation Yrotation Zrotation
								JOINT Junyuan_V1:Solving:LeftHand
								{
									OFFSET 22.031235 -0.000008 0.000000
									CHANNELS 6 Xposition Yposition Zposition Xrotation Yrotation Zrotation
									JOINT Junyuan_V1:Solving:LeftHandThumb1
									{
										OFFSET 3.579254 2.890213 -2.661497
										CHANNELS 6 Xposition Yposition Zposition Xrotation Yrotation Zrotation
										End Site
										{
											OFFSET 5.229485 0.000000 -5.277840
										}
									}
									JOINT Junyuan_V1:Solving:LeftHandMiddle1
									{
										OFFSET 9.544678 -0.000004 0.061184
										CHANNELS 6 Xposition Yposition Zposition Xrotation Yrotation Zrotation
										End Site
										{
											OFFSET 7.429878 -0.000004 0.000000
										}
									}
								}
							}
						}
					}
				}
			}
		}
	}
	JOINT Junyuan_V1:Solving:RightUpLeg
	{
		OFFSET -10.825166 0.000000 0.000000
		CHANNELS 6 Xposition Yposition Zposition Xrotation Yrotation Zrotation
		JOINT Junyuan_V1:Solving:RightLeg
		{
			OFFSET 0.000000 43.678444 -0.000006
			CHANNELS 6 Xposition Yposition Zposition Xrotation Yrotation Zrotation
			JOINT Junyuan_V1:Solving:RightFoot
			{
				OFFSET 0.000000 36.488441 -0.000006
				CHANNELS 6 Xposition Yposition Zposition Xrotation Yrotation Zrotation
				JOINT Junyuan_V1:Solving:RightForeFoot
				{
					OFFSET 0.000000 3.967834 -0.000000
					CHANNELS 6 Xposition Yposition Zposition Xrotation Yrotation Zrotation
					JOINT Junyuan_V1:Solving:RightToeBase
					{
						OFFSET 0.000000 0.000000 -15.539299
						CHANNELS 6 Xposition Yposition Zposition Xrotation Yrotation Zrotation
						JOINT Junyuan_V1:Solving:RightToeBaseEnd
						{
							OFFSET 0.000000 0.000000 -3.486985
							CHANNELS 6 Xposition Yposition Zposition Xrotation Yrotation Zrotation
							End Site
							{
								OFFSET 0.000000 -3.486992 0.000000
							}
						}
					}
				}
			}
		}
	}
	JOINT Junyuan_V1:Solving:LeftUpLeg
	{
		OFFSET 10.825166 0.000000 0.000000
		CHANNELS 6 Xposition Yposition Zposition Xrotation Yrotation Zrotation
		JOINT Junyuan_V1:Solving:LeftLeg
		{
			OFFSET 0.000000 43.678444 -0.000006
			CHANNELS 6 Xposition Yposition Zposition Xrotation Yrotation Zrotation
			JOINT Junyuan_V1:Solving:LeftFoot
			{
				OFFSET 0.000000 36.488441 -0.000006
				CHANNELS 6 Xposition Yposition Zposition Xrotation Yrotation Zrotation
				JOINT Junyuan_V1:Solving:LeftForeFoot
				{
					OFFSET 0.000000 3.967834 -0.000000
					CHANNELS 6 Xposition Yposition Zposition Xrotation Yrotation Zrotation
					JOINT Junyuan_V1:Solving:LeftToeBase
					{
						OFFSET 0.000000 0.000000 -15.539299
						CHANNELS 6 Xposition Yposition Zposition Xrotation Yrotation Zrotation
						JOINT Junyuan_V1:Solving:LeftToeBaseEnd
						{
							OFFSET 0.000000 0.000000 -3.974441
							CHANNELS 6 Xposition Yposition Zposition Xrotation Yrotation Zrotation
							End Site
							{
								OFFSET 0.000000 -3.974442 0.000000
							}
						}
					}
				}
			}
		}
	}
}
MOTION
Frames: 4
Frame Time: 0.041667
-23.666897 45.215435 -9.038301 -82.332330 1.542136 -187.745084 -0.000003 -11.180201 2.228567 12.299790 -1.379866 2.302182 0.000000 -8.682990 1.531048 7.321274 0.111953 -0.308141 -0.000002 -8.783397 0.768450 14.813553 -3.875752 7.707795 -0.000002 -8.816939 0.000000 -4.624204 -0.000716 1.647143 -0.000000 -11.336077 -1.133605 -22.872401 -8.842262 6.023111 0.000005 -7.643251 -0.668690 49.077833 -2.480574 -2.828360 -0.000000 -7.555864 -1.332301 0.437678 -0.086995 -0.063257 0.000004 -9.728096 0.000011 0.000000 -0.000001 0.000001 -0.000004 -8.097202 -5.270918 0.000020 12.869238 39.618980 -20.762379 0.000000 0.000005 -100.864211 -39.409017 -69.597449 -29.048943 -0.000014 -0.000007 11.773381 -58.969039 10.126051 -22.031256 -0.000022 -0.000002 -0.640005 7.252133 5.056826 -3.579260 2.890206 -2.661507 0.000005 -0.000003 0.000003 -9.544680 -0.000018 0.061181 0.000002 -0.000004 -0.000003 -0.000000 -8.097202 -5.270919 -0.000002 -17.382505 -22.880398 20.762394 -0.000009 0.000005 -77.605347 42.197383 66.991650 29.048950 -0.000021 -0.000002 -27.874651 56.939025 23.906253 22.031254 -0.000025 -0.000008 -4.445324 -7.462350 -30.903980 3.579275 2.890207 -2.661503 -0.000006 0.000007 -0.000002 9.544696 -0.000014 0.061180 -0.000007 -0.000003 0.000004 -10.825168 0.000001 -0.000001 -131.640640 24.966915 15.579387 0.000001 43.678448 0.000006 111.480278 0.000003 0.000004 -0.000003 36.488426 0.000000 28.256995 -2.138137 5.502148 0.000007 3.967827 -0.000002 0.000000 0.000001 -0.000002 -0.000004 0.000009 -15.539301 14.957682 -0.000001 0.000000 0.000003 -0.000008 -3.486987 -0.000001 -0.000000 -0.000001 10.825168 0.000002 0.000002 -127.893557 14.308895 -16.546041 0.000000 43.678429 0.000010 130.752634 0.000004 0.000002 -0.000000 36.488434 -0.000006 13.797099 18.223196 2.692569 -0.000014 3.967827 -0.000000 -0.000000 0.000000 -0.000000 -0.000008 0.000010 -15.539302 1.098385 0.000001 -0.000000 -0.000015 -0.000008 -3.974441 0.000000 0.000000 0.000000 
-23.655853 45.230019 -9.035233 -82.328983 1.565160 -187.728829 0.000001 -11.180205 2.228562 12.268461 -1.353642 2.233888 -0.000002 -8.682991 1.531047 7.277094 0.115731 -0.322026 0.000000 -8.783392 0.768453 14.820718 -3.851433 7.663721 0.000003 -8.816947 -0.000005 -4.628992 -0.000551 1.698940 -0.000005 -11.336067 -1.133609 -22.768331 -8.828680 6.028246 -0.000002 -7.643233 -0.668689 49.025151 -2.445037 -2.899980 -0.000003 -7.555877 -1.332285 0.473373 -0.083535 -0.061821 0.000005 -9.728081 0.000018 0.000004 -0.000002 -0.000001 -0.000006 -8.097183 -5.270925 0.000014 12.814739 39.898174 -20.762394 -0.000007 0.000002 -101.346825 -38.797650 -70.022293 -29.048950 -0.000006 -0.000009 12.752737 -58.664474 10.941031 -22.031239 -0.000000 -0.000002 -0.525995 6.912444 4.362052 -3.579259 2.890209 -2.661493 0.000006 0.000005 0.000004 -9.544691 -0.000012 0.061190 0.000003 0.000002 0.000003 -0.000003 -8.097183 -5.270923 -0.000003 -17.337289 -23.150919 20.762381 -0.000006 -0.000002 -77.519232 42.208547 66.790309 29.048946 -0.000019 -0.000012 -27.829324 56.973763 23.873980 22.031227 -0.000022 0.000002 -4.500455 -7.547305 -30.932308 3.579266 2.890195 -2.661503 -0.000000 0.000000 -0.000005 9.544687 -0.000011 0.061177 0.000002 -0.000001 0.000003 -10.825165 -0.000001 0.000004 -131.655352 24.992338 15.658127 0.000007 43.678429 0.000015 111.463285 0.000005 0.000003 -0.000002 36.488426 -0.000005 28.250011 -2.167656 5.510276 0.000006 3.967827 -0.000002 0.000001 -0.000001 -0.000005 0.000008 0.000012 -15.539298 14.963174 -0.000004 0.000001 0.000001 -0.000009 -3.486990 -0.000001 0.000000 -0.000005 10.825160 -0.000002 0.000005 -127.730152 14.514847 -16.548531 -0.000007 43.678425 0.000006 130.719343 0.000005 0.000000 0.000007 36.488445 -0.000009 13.413085 18.854327 2.786060 -0.000014 3.967827 0.000000 0.000000 0.000000 0.000000 -0.000005 -0.000019 -15.539298 1.439191 0.000001 -0.000000 -0.000001 -0.000008 -3.974443 -0.000000 0.000001 0.000000 
-23.629852 45.218388 -9.052709 -82.224809 1.440795 -187.793142 -0.000004 -11.180194 2.228558 12.267541 -1.378373 2.261885 -0.000001 -8.682997 1.531057 7.306075 0.114646 -0.323580 0.000002 -8.783388 0.768455 14.924496 -3.886080 7.700856 -0.000000 -8.816943 -0.000001 -4.691999 0.026219 1.603883 -0.000001 -11.336070 -1.133612 -22.612994 -8.989058 6.339800 0.000004 -7.643238 -0.668692 48.933808 -2.471674 -3.222610 0.000001 -7.555873 -1.332314 0.512258 -0.078503 -0.058386 0.000000 -9.728081 0.000002 -0.000005 -0.000001 0.000001 -0.000000 -8.097195 -5.270916 0.000011 12.694382 40.243837 -20.762394 -0.000012 0.000004 -101.875714 -38.323761 -70.423683 -29.048944 -0.000005 -0.000004 12.955417 -58.322200 11.076876 -22.031240 -0.000009 -0.000002 -0.459968 6.607068 3.991155 -3.579254 2.890198 -2.661500 0.000007 -0.000007 -0.000000 -9.544687 -0.000025 0.061182 0.000004 -0.000005 -0.000003 -0.000002 -8.097195 -5.270919 -0.000001 -17.601288 -22.661021 20.762396 0.000002 -0.000004 -78.096936 43.237604 66.767333 29.048950 -0.000025 -0.000019 -27.920539 56.186762 23.763662 22.031240 -0.000013 -0.000012 -4.329184 -7.337188 -30.658233 3.579269 2.890220 -2.661511 0.000004 -0.000002 -0.000001 9.544691 0.000006 0.061157 -0.000001 -0.000002 -0.000003 -10.825167 0.000003 0.000001 -131.470951 25.066810 15.556779 0.000003 43.678436 0.000002 111.442821 0.000006 0.000002 0.000001 36.488426 0.000001 28.247928 -2.162403 5.510850 -0.000004 3.967827 -0.000001 0.000000 0.000000 -0.000002 0.000001 0.000007 -15.539302 14.991020 -0.000003 0.000002 -0.000001 -0.000000 -3.486984 0.000000 0.000002 0.000000 10.825159 0.000004 -0.000006 -127.635212 14.461201 -16.654639 -0.000001 43.678436 0.000003 130.741541 0.000006 -0.000001 -0.000007 36.488422 -0.000005 13.644195 18.507702 2.691553 -0.000004 3.967827 -0.000002 0.000000 0.000000 0.000000 -0.000010 -0.000012 -15.539301 1.161723 0.000000 -0.000000 -0.000007 -0.000008 -3.974442 -0.000001 0.000000 0.000000 
-23.564634 45.242489 -9.045145 -82.248318 1.417328 -187.694841 0.000007 -11.180206 2.228566 12.249453 -1.377373 2.194735 0.000002 -8.682997 1.531049 7.264280 0.108653 -0.341550 -0.000002 -8.783397 0.768448 14.903934 -3.943904 7.656199 -0.000002 -8.816947 -0.000001 -4.699457 0.020309 1.590204 -0.000004 -11.336076 -1.133579 -22.491297 -9.017504 6.444406 -0.000004 -7.643248 -0.668685 48.862641 -2.412583 -3.383239 -0.000005 -7.555871 -1.332309 0.572543 -0.070384 -0.058813 0.000003 -9.728073 0.000006 0.000002 0.000001 0.000003 -0.000007 -8.097198 -5.270900 0.000016 12.628413 40.551533 -20.762405 -0.000006 -0.000000 -102.383689 -37.652828 -70.829915 -29.048943 -0.000024 -0.000010 13.751208 -57.935092 11.716252 -22.031244 -0.000024 -0.000000 -0.352718 6.140262 3.293883 -3.579272 2.890205 -2.661495 0.000008 -0.000002 0.000007 -9.544687 -0.000007 0.061184 0.000001 0.000001 -0.000003 -0.000002 -8.097187 -5.270901 -0.000014 -17.674110 -22.572829 20.762398 -0.000010 0.000010 -78.342570 43.817911 66.630674 29.048952 -0.000022 -0.000004 -27.701104 55.861710 23.487987 22.031239 -0.000030 -0.000006 -4.285705 -7.288367 -30.570520 3.579252 2.890212 -2.661506 0.000001 0.000000 -0.000003 9.544670 -0.000003 0.061169 -0.000003 0.000001 -0.000000 -10.825163 -0.000001 0.000005 -131.452059 25.230208 15.582351 0.000002 43.678448 0.000017 111.364500 0.000004 0.000011 -0.000009 36.488434 -0.000008 28.276196 -2.140859 5.505007 -0.000004 3.967826 0.000001 -0.000001 0.000002 -0.000002 -0.000001 -0.000001 -15.539296 14.974066 0.000000 -0.000004 0.000003 -0.000000 -3.486986 0.000001 -0.000001 -0.000002 10.825164 -0.000003 0.000010 -127.728595 14.528234 -16.702020 0.000001 43.678432 -0.000013 130.677638 0.000004 0.000003 -0.000004 36.488430 -0.000009 13.862327 18.402483 2.590777 -0.000005 3.967834 0.000001 0.000001 -0.000000 -0.000000 -0.000006 -0.000005 -15.539300 1.135947 0.000000 -0.000000 -0.000004 -0.000008 -3.974441 -0.000000 0.000000 -0.000000 
